<svg width="89" height="42" viewBox="0 0 89 42" fill="none" xmlns="http://www.w3.org/2000/svg">
<path d="M11.928 41.624C10.648 41.624 9.41067 41.368 8.216 40.856C7.064 40.3867 6.104 39.6187 5.336 38.552C4.61067 37.4853 4.248 36.12 4.248 34.456C4.248 32.0667 4.78133 29.6987 5.848 27.352C6.91467 24.9627 8.32267 22.6587 10.072 20.44C7.34133 20.0987 5.10133 19.416 3.352 18.392C1.60267 17.368 0.728 15.8747 0.728 13.912C0.728 12.5467 1.112 11.416 1.88 10.52C2.648 9.58133 3.608 8.83467 4.76 8.28C5.95467 7.72533 7.21333 7.29867 8.536 7C9.90133 6.70133 11.16 6.50933 12.312 6.424C13.5067 6.33867 14.4453 6.296 15.128 6.296C15.3413 6.296 15.832 6.31733 16.6 6.36C17.4107 6.36 18.264 6.40266 19.16 6.488C20.0987 6.53067 20.9093 6.616 21.592 6.744C22.2747 6.872 22.616 7.02133 22.616 7.192C22.616 7.36267 22.4667 7.448 22.168 7.448C21.6133 7.448 20.9947 7.42666 20.312 7.384C19.6293 7.29867 18.9467 7.256 18.264 7.256C17.752 7.256 17.24 7.256 16.728 7.256C16.216 7.256 15.7253 7.27733 15.256 7.32C14.4027 7.36267 13.336 7.46933 12.056 7.64C10.776 7.768 9.496 8.06667 8.216 8.536C6.97867 8.96267 5.93333 9.624 5.08 10.52C4.22667 11.3733 3.8 12.5467 3.8 14.04C3.8 15.6187 4.44 16.856 5.72 17.752C7.04267 18.6053 8.74933 19.16 10.84 19.416C12.8453 17.0267 15.128 14.8293 17.688 12.824C20.248 10.776 22.8507 9.00533 25.496 7.512C28.184 6.01867 30.7653 4.84533 33.24 3.992C35.7573 3.13866 37.9547 2.712 39.832 2.712C41.0693 2.712 42.2213 2.94666 43.288 3.416C44.3547 3.84267 44.888 4.76 44.888 6.168C44.888 7.832 44.2267 9.38933 42.904 10.84C41.624 12.2907 39.896 13.6133 37.72 14.808C35.544 16.0027 33.112 17.048 30.424 17.944C27.736 18.7973 24.9627 19.4587 22.104 19.928C19.2453 20.3973 16.5147 20.632 13.912 20.632H13.4C11.8213 22.7653 10.5413 24.9627 9.56 27.224C8.62133 29.4427 8.152 31.6613 8.152 33.88C8.152 35.9707 8.62133 37.5707 9.56 38.68C10.4987 39.7467 11.608 40.28 12.888 40.28C14.7653 40.28 16.7067 39.832 18.712 38.936C20.7173 37.9973 22.5733 36.7813 24.28 35.288C26.0293 33.7947 27.5013 32.1947 28.696 30.488C29.8907 28.7387 30.616 27.0533 30.872 25.432C30.872 25.3467 30.872 25.2613 30.872 25.176C30.9147 25.0907 30.936 25.0053 30.936 24.92C30.936 24.3653 30.7653 23.9173 30.424 23.576C30.0827 23.192 29.528 23 28.76 23C28.5893 23 28.4187 23.0213 28.248 23.064C28.0773 23.064 27.8853 23.0853 27.672 23.128C26.4773 23.3413 25.112 23.96 23.576 24.984C22.04 26.008 20.5893 27.288 19.224 28.824C17.9013 30.3173 16.8987 31.9173 16.216 33.624C16.0453 33.7093 15.9387 33.752 15.896 33.752C15.6827 33.752 15.64 33.496 15.768 32.984C16.1947 31.832 16.8773 30.616 17.816 29.336C18.7973 28.0133 19.9493 26.776 21.272 25.624C22.5947 24.472 24.024 23.5333 25.56 22.808C27.096 22.0827 28.6533 21.72 30.232 21.72C31.4267 21.7627 32.3013 22.04 32.856 22.552C33.4107 23.064 33.688 23.7467 33.688 24.6C33.688 25.8373 33.176 27.2667 32.152 28.888C31.3413 30.168 30.1893 31.5547 28.696 33.048C27.2453 34.4987 25.5813 35.8853 23.704 37.208C21.8267 38.488 19.864 39.5333 17.816 40.344C15.8107 41.1973 13.848 41.624 11.928 41.624ZM14.168 19.608C16.5147 19.608 19.0107 19.3733 21.656 18.904C24.344 18.392 26.968 17.7093 29.528 16.856C32.088 16.0027 34.4133 15 36.504 13.848C38.5947 12.696 40.2587 11.4587 41.496 10.136C42.776 8.81333 43.416 7.42666 43.416 5.976C43.416 4.99466 43.032 4.35467 42.264 4.056C41.5387 3.75733 40.7493 3.608 39.896 3.608C38.1467 3.608 36.1627 4.03466 33.944 4.888C31.7253 5.69867 29.4213 6.82933 27.032 8.28C24.6853 9.73067 22.4027 11.4373 20.184 13.4C17.9653 15.32 15.96 17.3893 14.168 19.608ZM30.8195 40.984C30.4355 40.6853 30.2435 40.2373 30.2435 39.64C30.2435 39.0427 30.4568 38.4453 30.8835 37.848C31.2675 37.208 31.9928 36.7387 33.0595 36.44C33.6142 36.2693 34.3395 36.184 35.2355 36.184C36.7288 36.184 38.6062 36.3973 40.8675 36.824C43.1715 37.2507 46.0302 37.6987 49.4435 38.168C50.2115 38.2533 51.0008 38.3387 51.8115 38.424C52.6222 38.5093 53.4755 38.552 54.3715 38.552C54.9262 38.552 55.4808 38.5307 56.0355 38.488C56.5902 38.4453 57.1448 38.3813 57.6995 38.296C60.4728 37.8267 62.9902 36.7173 65.2515 34.968C67.5128 33.176 69.1555 30.9147 70.1795 28.184C70.5208 27.288 70.6915 26.3067 70.6915 25.24C70.6915 24.1733 70.4355 23.2133 69.9235 22.36C69.4115 21.464 68.4728 21.016 67.1075 21.016C66.4248 21.016 65.7848 21.1013 65.1875 21.272C64.5902 21.4 63.9928 21.7413 63.3955 22.296C63.2675 21.9547 63.2035 21.6773 63.2035 21.464C63.2035 20.7387 64.0142 20.312 65.6355 20.184C66.1048 20.184 66.5742 20.1627 67.0435 20.12C67.5128 20.0347 67.9608 19.8853 68.3875 19.672C70.6915 18.6907 72.4408 17.5173 73.6355 16.152C74.8728 14.744 75.7475 13.1227 76.2595 11.288C76.3448 10.9467 76.4088 10.648 76.4515 10.392C76.4942 10.0933 76.5155 9.79467 76.5155 9.496C76.5155 8.04533 75.9822 6.808 74.9155 5.784C73.2942 7.23466 71.6728 8.94133 70.0515 10.904C68.4728 12.8667 66.9368 14.8933 65.4435 16.984C63.9502 19.0747 62.5422 21.08 61.2195 23C60.1955 24.408 59.1288 25.9013 58.0195 27.48C56.9102 29.0587 55.7582 30.552 54.5635 31.96C53.3688 33.3253 52.1315 34.456 50.8515 35.352C49.5715 36.2053 48.2702 36.6747 46.9475 36.76C47.9715 36.0347 49.0168 35.032 50.0835 33.752C51.1502 32.4293 52.2168 30.9787 53.2835 29.4C54.3502 27.8213 55.3742 26.2427 56.3555 24.664C57.3795 23.0853 58.3395 21.6773 59.2355 20.44C61.2408 17.5387 63.4808 14.68 65.9555 11.864C68.4302 9.048 70.9262 6.65867 73.4435 4.696C72.5475 4.22666 71.4382 3.864 70.1155 3.608C68.8355 3.352 67.3208 3.224 65.5715 3.224C62.7128 3.224 59.9822 3.672 57.3795 4.568C54.8195 5.42133 52.4728 6.552 50.3395 7.96C48.2062 9.368 46.3715 10.9467 44.8355 12.696C43.2995 14.4027 42.1048 16.1093 41.2515 17.816C40.3982 19.5227 39.9715 21.1013 39.9715 22.552C39.9715 23.9173 40.3982 25.0693 41.2515 26.008C42.1475 26.9467 43.5555 27.5013 45.4755 27.672C45.7742 27.672 45.9235 27.736 45.9235 27.864C45.9235 28.0347 45.7315 28.12 45.3475 28.12C42.8302 27.9067 40.9742 27.1813 39.7795 25.944C38.5848 24.7067 37.9875 23.192 37.9875 21.4C37.9875 19.48 38.6062 17.432 39.8435 15.256C41.1235 13.08 42.9582 11.0107 45.3475 9.048C47.7368 7.08533 50.6168 5.48533 53.9875 4.248C57.3582 3.01066 61.1555 2.392 65.3795 2.392C67.4275 2.392 69.2195 2.52 70.7555 2.776C72.2915 2.98933 73.5928 3.33066 74.6595 3.8C76.1528 2.73333 77.6248 1.90133 79.0755 1.304C80.5688 0.706664 81.9768 0.407997 83.2995 0.407997C84.0675 0.407997 84.8355 0.535998 85.6035 0.792C86.3715 1.00533 87.0115 1.38933 87.5235 1.944C88.0782 2.49866 88.3555 3.30933 88.3555 4.376C88.0995 3.52266 87.5022 2.84 86.5635 2.328C85.6248 1.77333 84.6435 1.496 83.6195 1.496C82.4248 1.496 81.2088 1.77333 79.9715 2.328C78.7342 2.88267 77.4968 3.65067 76.2595 4.632C77.3262 5.31467 78.0728 6.12533 78.4995 7.064C78.9688 8.00267 79.2035 8.96266 79.2035 9.944C79.2035 11.2667 78.7555 12.6747 77.8595 14.168C77.0062 15.6187 75.7262 16.92 74.0195 18.072C72.3555 19.224 70.3075 20.0133 67.8755 20.44C68.8995 20.44 69.8808 20.6747 70.8195 21.144C71.7582 21.6133 72.5048 22.296 73.0595 23.192C73.4008 23.7467 73.6355 24.3013 73.7635 24.856C73.8915 25.4107 73.9555 25.9867 73.9555 26.584C73.9555 27.9067 73.6355 29.2293 72.9955 30.552C72.3555 31.832 71.5022 33.0053 70.4355 34.072C69.4115 35.1387 68.3022 36.0347 67.1075 36.76C65.2728 37.784 63.3315 38.488 61.2835 38.872C59.2782 39.256 57.1875 39.448 55.0115 39.448C53.3048 39.448 51.3848 39.32 49.2515 39.064C47.1608 38.8507 45.0275 38.6587 42.8515 38.488C42.3395 38.4453 41.8275 38.424 41.3155 38.424C40.8035 38.3813 40.2488 38.36 39.6515 38.36C37.8168 38.36 36.0462 38.552 34.3395 38.936C32.6755 39.2773 31.5022 39.96 30.8195 40.984Z" fill="black"/>
</svg>
